<?xml version="1.0" encoding="UTF-8"?>
<svg id="_Слой_1" data-name="Слой_1" xmlns="http://www.w3.org/2000/svg" version="1.1" viewBox="0 0 70 70">
  <!-- Generator: Adobe Illustrator 29.2.1, SVG Export Plug-In . SVG Version: 2.1.0 Build 116)  -->
  <defs>
    <style>
      .st0 {
        fill: #000089;
      }
    </style>
  </defs>
  <path class="st0" d="M26.6.8C16.5,3.4,7.8,10.6,2.9,20.6.4,25.8,0,27.7,0,35.2s.5,9.6,2.7,14.3c3.4,7.3,9.9,13.8,17.7,17.6,5.2,2.5,7.1,2.9,14.6,2.9s9.6-.5,14.4-2.7c7.3-3.4,13.9-9.9,17.7-17.6,2.5-5.1,2.9-7.1,2.9-14.5s-2.9-17.7-9.8-24.5C51.6,2.2,37.6-1.9,26.6.8ZM34.6,31.3l7.5,7.2v-5.2c0-4.5.3-5.2,1.8-4.9s1.7,1.5,1.7,8.9v8.6h-8.6c-7.4,0-8.6-.2-8.9-1.8-.3-1.4.4-1.7,5-1.7h5.3l-7.2-7.5c-7.1-7.3-8-8.7-6.6-10,1.3-1.4,2.7-.5,10,6.6Z"/>
</svg>