<?xml version="1.0" encoding="UTF-8"?>
<svg id="_Слой_1" xmlns="http://www.w3.org/2000/svg" version="1.1" viewBox="0 0 595.3 593.6">
  <!-- Generator: Adobe Illustrator 29.2.1, SVG Export Plug-In . SVG Version: 2.1.0 Build 116)  -->
  <defs>
    <style>
      .st0 {
        fill: none;
        stroke: #fff;
        stroke-miterlimit: 10;
        stroke-width: 10px;
      }
    </style>
  </defs>
  <path class="st0" d="M297.6,588.4c80.3,0,145.4-65.1,145.4-145.4s-65.1-145.4-145.4-145.4-145.4,65.1-145.4,145.4,65.1,145.4,145.4,145.4Z"/>
  <path class="st0" d="M297.6,297.7c80.3,0,145.4-65.1,145.4-145.4S377.9,7,297.6,7s-145.4,65.1-145.4,145.4,65.1,145.4,145.4,145.4h0Z"/>
  <path class="st0" d="M442.9,443.1c80.3,0,145.4-65.1,145.4-145.4s-65.1-145.4-145.4-145.4-145.4,65.1-145.4,145.4,65.1,145.4,145.4,145.4Z"/>
  <path class="st0" d="M152.2,443.1c80.3,0,145.4-65.1,145.4-145.4s-65.1-145.4-145.4-145.4S6.8,217.4,6.8,297.7s65.1,145.4,145.4,145.4h0Z"/>
  <path class="st0" d="M400.3,545.8c80.3,0,145.4-65.1,145.4-145.4s-65.1-145.4-145.4-145.4-145.4,65.1-145.4,145.4,65.1,145.4,145.4,145.4h0Z"/>
  <path class="st0" d="M194.9,340c80.3,0,145.4-65.1,145.4-145.4S275.1,49.3,194.9,49.3,49.5,114.4,49.5,194.7s65.1,145.4,145.4,145.4Z"/>
  <path class="st0" d="M400.3,340c80.3,0,145.4-65.1,145.4-145.4S480.6,49.3,400.3,49.3s-145.4,65.1-145.4,145.4,65.1,145.4,145.4,145.4Z"/>
  <path class="st0" d="M194.9,545.8c80.3,0,145.4-65.1,145.4-145.4s-65.1-145.4-145.4-145.4S49.5,320.1,49.5,400.4s65.1,145.4,145.4,145.4Z"/>
</svg>