<?xml version="1.0" encoding="UTF-8"?>
<svg id="_Слой_1" data-name="Слой_1" xmlns="http://www.w3.org/2000/svg" version="1.1" viewBox="0 0 60 60">
  <!-- Generator: Adobe Illustrator 29.2.1, SVG Export Plug-In . SVG Version: 2.1.0 Build 116)  -->
  <defs>
    <style>
      .st0 {
        fill: #fff;
      }
    </style>
  </defs>
  <path class="st0" d="M35.14,40.78h-9.11v18.22h9.11v-18.22Z"/>
  <path class="st0" d="M35.14.49h-9.11v18.22h9.11V.49Z"/>
  <path class="st0" d="M41.64,25.26v9.11h18.22v-9.11h-18.22Z"/>
  <path class="st0" d="M1.36,25.26v9.11h18.22v-9.11H1.36Z"/>
  <path class="st0" d="M41.58,34.37l-6.44,6.44,12.89,12.88,6.44-6.44-12.89-12.88Z"/>
  <path class="st0" d="M13.14,5.93l-6.44,6.44,12.89,12.88,6.44-6.44L13.14,5.93Z"/>
  <path class="st0" d="M35.14,18.82l6.44,6.44,12.89-12.88-6.44-6.44-12.89,12.88Z"/>
  <path class="st0" d="M6.7,47.25l6.44,6.44,12.89-12.88-6.44-6.44-12.89,12.88Z"/>
</svg>